<svg xmlns="http://www.w3.org/2000/svg" xmlns:xlink="http://www.w3.org/1999/xlink" viewBox="0 0 840 726.85"><defs><style>.cls-1{opacity:0.8;}.cls-2{fill:url(#linear-gradient);}.cls-3{fill:url(#linear-gradient-2);}.cls-15,.cls-4,.cls-8{fill:#fff;}.cls-12,.cls-4{opacity:0.1;}.cls-11,.cls-12,.cls-14,.cls-15,.cls-4,.cls-5{isolation:isolate;}.cls-5{fill:#ccc;}.cls-11,.cls-5{opacity:0.2;}.cls-6{opacity:0.3;}.cls-7{fill:url(#linear-gradient-3);}.cls-15,.cls-9{opacity:0.5;}.cls-10{fill:url(#linear-gradient-4);}.cls-13{fill:url(#linear-gradient-5);}.cls-14{opacity:0.05;}.cls-16{font-size:64.3px;fill:#080f22;font-family:AvertaStd-Bold, Averta Std;font-weight:700;}.cls-17{fill:url(#linear-gradient-6);}.cls-18{fill:url(#linear-gradient-7);}.cls-19{fill:url(#linear-gradient-8);}.cls-20{fill:url(#linear-gradient-9);}.cls-21{fill:url(#linear-gradient-10);}</style><linearGradient id="linear-gradient" x1="-331.36" y1="1114.28" x2="-331.36" y2="1115.28" gradientTransform="matrix(292.92, 0, 0, -226.92, 97494.9, 253098.36)" gradientUnits="userSpaceOnUse"><stop offset="0" stop-color="gray" stop-opacity="0.25"/><stop offset="0.54" stop-color="gray" stop-opacity="0.12"/><stop offset="1" stop-color="gray" stop-opacity="0.1"/></linearGradient><linearGradient id="linear-gradient-2" x1="288.79" y1="132.31" x2="575.21" y2="132.31" gradientUnits="userSpaceOnUse"><stop offset="0" stop-color="#007aff"/><stop offset="0.5" stop-color="#13d5fa"/><stop offset="0.62" stop-color="#38e0ee"/><stop offset="1" stop-color="#a6ffcb"/></linearGradient><linearGradient id="linear-gradient-3" x1="-330.19" y1="1107.05" x2="-330.19" y2="1108.09" gradientTransform="matrix(144.13, 0, 0, -178.16, 48001.81, 199060.66)" xlink:href="#linear-gradient"/><linearGradient id="linear-gradient-4" x1="-330.19" y1="1106.96" x2="-330.19" y2="1108" gradientTransform="matrix(144.13, 0, 0, -178.16, 48014.83, 198667.54)" xlink:href="#linear-gradient"/><linearGradient id="linear-gradient-5" x1="-331.94" y1="1113.48" x2="-331.94" y2="1114.48" gradientTransform="matrix(592.36, 0, 0, -154.82, 197058.7, 172647.13)" xlink:href="#linear-gradient"/><linearGradient id="linear-gradient-6" x1="329.61" y1="474.36" x2="519.69" y2="474.36" gradientTransform="translate(-35.71 9.99)" xlink:href="#linear-gradient-2"/><linearGradient id="linear-gradient-7" x1="329.61" y1="504.52" x2="519.69" y2="504.52" gradientTransform="translate(-20.22 5.71)" xlink:href="#linear-gradient-2"/><linearGradient id="linear-gradient-8" x1="329.61" y1="534.67" x2="519.69" y2="534.67" gradientTransform="translate(-4.73 1.42)" xlink:href="#linear-gradient-2"/><linearGradient id="linear-gradient-9" x1="329.61" y1="564.83" x2="424.65" y2="564.83" gradientTransform="translate(17.5 21.55)" xlink:href="#linear-gradient-2"/><linearGradient id="linear-gradient-10" x1="329.61" y1="594.99" x2="424.65" y2="594.99" gradientTransform="translate(32.99 17.27)" xlink:href="#linear-gradient-2"/></defs><title>error.svg</title><g id="Layer_2" data-name="Layer 2"><g id="Layer_1-2" data-name="Layer 1"><g id="Group_1" data-name="Group 1" class="cls-1"><ellipse id="Ellipse_1" data-name="Ellipse 1" class="cls-2" cx="432" cy="132.31" rx="146.46" ry="113.46"/></g><ellipse id="Ellipse_2" data-name="Ellipse 2" class="cls-3" cx="432" cy="132.31" rx="143.21" ry="110.94"/><path id="Path_1" data-name="Path 1" class="cls-4" d="M311.94,144.64c0-61.27,64.11-110.94,143.2-110.94A175.38,175.38,0,0,1,526.5,48.43c-25.17-17-58.1-27.33-94.14-27.33C353.27,21.1,289.15,70.77,289.15,132c0,41.14,28.91,77.05,71.86,96.21C330.94,207.91,311.94,178,311.94,144.64Z"/><path id="Path_2" data-name="Path 2" class="cls-5" d="M432,176.9l158.76,275,158.76,275h-635l158.76-275Z"/><g id="Group_2" data-name="Group 2" class="cls-6"><path id="Path_3" data-name="Path 3" class="cls-7" d="M469.67,566.22,482,529.63a62.65,62.65,0,0,0-23.2-70.89l.1-.06a61.3,61.3,0,0,0-15.79-8h0l-.17-.06-.19-.06h0a61.29,61.29,0,0,0-16.9-3.18,56.61,56.61,0,0,0-6.11,0,61.87,61.87,0,0,0-10.49,1.45c-1,.22-2,.47-2.91.74s-1.93.56-2.88.87c-1.9.63-3.77,1.34-5.6,2.15-.92.4-1.83.82-2.72,1.27a61.47,61.47,0,0,0-7.75,4.56c-.83.57-1.64,1.16-2.44,1.76a62.08,62.08,0,0,0-21.24,29.6l-19.38,57.65a61.82,61.82,0,0,0-2.68,28.12c.2,1.45.45,2.89.74,4.32s.65,2.84,1,4.24c.27.93.55,1.86.86,2.78.46,1.37,1,2.74,1.51,4.08.37.89.76,1.78,1.17,2.66.81,1.75,1.71,3.46,2.68,5.13a55.68,55.68,0,0,0,3.16,4.88c.84,1.18,1.73,2.34,2.65,3.46a51.73,51.73,0,0,0,3.92,4.33,61.79,61.79,0,0,0,21,13.89h0l.34.14a20.57,20.57,0,0,1,1.4-2.17c3-4.11,8.22-7,13.19-5.92.36.08.72.19,1.08.3,2.52.89,5,2.48,7.43,3.26a6.67,6.67,0,0,0,5.61-.07c4.86-2.59,3.06-10.76,7.23-14.34a5.41,5.41,0,0,1,.61-.46,1.88,1.88,0,0,1-.16-.23c3.22-2,7.68-.67,11.39.62,4,1.41,9.22,2.36,12-.91,1.88-2.24,1.74-5.65,3.53-8,2.08-2.7,6-3,9.39-2.52l.17.05c6.5,2.68,13.6-1.77,13.1-8.78A54.77,54.77,0,0,1,469.67,566.22Z"/></g><circle id="Ellipse_6" data-name="Ellipse 6" class="cls-8" cx="552.53" cy="487.52" r="9.76"/><circle id="Ellipse_7" data-name="Ellipse 7" class="cls-8" cx="583.45" cy="472.17" r="4.88"/><g id="Group_4" data-name="Group 4" class="cls-9"><g id="Group_3" data-name="Group 3" class="cls-6"><path id="Path_5" data-name="Path 5" class="cls-10" d="M482.67,173.22,495,136.63a62.66,62.66,0,0,0-23.2-70.89l.1-.06a61.3,61.3,0,0,0-15.79-8h0l-.17-.06-.19-.06h0a61.29,61.29,0,0,0-16.9-3.18,56.61,56.61,0,0,0-6.11,0,61.87,61.87,0,0,0-10.49,1.45c-1,.22-2,.47-2.91.74s-1.93.56-2.88.87c-1.9.63-3.77,1.34-5.6,2.15-.92.4-1.83.82-2.72,1.27a61.47,61.47,0,0,0-7.75,4.56c-.83.57-1.64,1.16-2.44,1.76a62.08,62.08,0,0,0-21.24,29.6l-19.38,57.65a61.82,61.82,0,0,0-2.68,28.12c.2,1.45.45,2.89.74,4.32s.65,2.84,1,4.24c.27.93.55,1.86.86,2.78.46,1.37,1,2.74,1.51,4.08.37.89.76,1.78,1.17,2.66.81,1.75,1.71,3.46,2.68,5.13a55.68,55.68,0,0,0,3.16,4.88c.84,1.18,1.73,2.34,2.65,3.46,1.24,1.5,2.54,3,3.92,4.33a61.79,61.79,0,0,0,21,13.89h0l.34.14a20.57,20.57,0,0,1,1.4-2.17c3-4.11,8.22-7,13.19-5.92.36.08.72.19,1.08.3,2.52.89,5,2.48,7.43,3.26a6.67,6.67,0,0,0,5.61-.07c4.86-2.59,3.06-10.76,7.23-14.34a5.41,5.41,0,0,1,.61-.46,1.88,1.88,0,0,1-.16-.23c3.22-2,7.68-.67,11.39.62,4,1.41,9.22,2.36,12-.91,1.88-2.24,1.74-5.65,3.53-8,2.08-2.7,6-3,9.39-2.52h.17c6.5,2.68,13.6-1.77,13.1-8.78C479.06,183.94,482,175.13,482.67,173.22Z"/></g><path id="Path_6" data-name="Path 6" class="cls-8" d="M396.21,227.21c2.92-4,7.93-6.8,12.73-5.71s9.35,5.66,13.62,3.37c5.84-3.12,1.7-14.59,11.18-15.44a12.42,12.42,0,0,1,5.77,1c4,1.63,10.26,3.47,13.34-.2,1.81-2.16,1.68-5.45,3.41-7.69,2-2.6,5.81-2.93,9.06-2.43l.16,0c6.27,2.59,13.13-1.71,12.64-8.47-.63-9,2.23-17.48,2.85-19.32l11.88-35.31A60.38,60.38,0,0,0,455,60.77h0a60.37,60.37,0,0,0-76.27,37.86L360,154.16a60.39,60.39,0,0,0,34.82,75.15A21.2,21.2,0,0,1,396.21,227.21Z"/><circle id="Ellipse_8" data-name="Ellipse 8" class="cls-11" cx="418.35" cy="93.08" r="6.51"/><circle id="Ellipse_9" data-name="Ellipse 9" class="cls-11" cx="455.37" cy="105.53" r="6.51"/></g><path id="Path_7" data-name="Path 7" class="cls-12" d="M569.52,99.43a87.3,87.3,0,0,1,2.79,22c0,61.27-64.11,110.94-143.2,110.94-64.73,0-119.42-33.3-137.11-78.94,13.14,50.77,71,89,140.41,89,79.09,0,143.21-49.67,143.21-110.94a88.17,88.17,0,0,0-6.1-32.06Z"/><g id="Group_5" data-name="Group 5" class="cls-1"><ellipse id="Ellipse_10" data-name="Ellipse 10" class="cls-13" cx="432" cy="180.68" rx="296.18" ry="77.41"/></g><path id="Path_8" data-name="Path 8" class="cls-8" d="M432,105.83c-158.18,0-286.42,33.51-286.42,74.86H718.42C718.42,139.34,590.18,105.83,432,105.83Z"/><path id="Path_9" data-name="Path 9" class="cls-8" d="M432,255.54c158.18,0,286.42-33.51,286.42-74.85H145.58C145.58,222,273.82,255.54,432,255.54Z"/><path id="Path_10" data-name="Path 10" class="cls-14" d="M432,255.54c158.18,0,286.42-33.51,286.42-74.85H145.58C145.58,222,273.82,255.54,432,255.54Z"/><rect id="Rectangle_1" data-name="Rectangle 1" class="cls-14" x="295.3" y="161.15" width="273.4" height="39.06" rx="17.22"/><path id="Path_11" data-name="Path 11" class="cls-15" d="M133.89,57.81a3.69,3.69,0,0,1-2-4.44,1.86,1.86,0,0,0,.08-.41h0a1.84,1.84,0,0,0-3.31-1.22h0a1.58,1.58,0,0,0-.2.36,3.68,3.68,0,0,1-4.44,2,1.86,1.86,0,0,0-.41-.08h0a1.84,1.84,0,0,0-1.22,3.31h0a2.12,2.12,0,0,0,.36.21,3.68,3.68,0,0,1,2,4.44,1.77,1.77,0,0,0-.08.4h0A1.84,1.84,0,0,0,128,63.66h0a1.9,1.9,0,0,0,.2-.37,3.67,3.67,0,0,1,4.44-2,1.86,1.86,0,0,0,.41.08h0a1.84,1.84,0,0,0,1.22-3.31h0A1.78,1.78,0,0,0,133.89,57.81Z"/><path id="Path_12" data-name="Path 12" class="cls-15" d="M642.89,363.81a3.68,3.68,0,0,1-2-4.44A1.86,1.86,0,0,0,641,359h0a1.84,1.84,0,0,0-3.31-1.22h0a1.58,1.58,0,0,0-.2.36,3.68,3.68,0,0,1-4.44,2,1.86,1.86,0,0,0-.41-.08h0a1.84,1.84,0,0,0-1.22,3.31h0a2.12,2.12,0,0,0,.36.21,3.68,3.68,0,0,1,2,4.44,1.77,1.77,0,0,0-.08.4h0a1.84,1.84,0,0,0,3.31,1.23h0a1.9,1.9,0,0,0,.2-.37,3.67,3.67,0,0,1,4.44-2,1.86,1.86,0,0,0,.41.08h0a1.84,1.84,0,0,0,1.22-3.31h0a1.78,1.78,0,0,0-.36-.25Z"/><path id="Path_13" data-name="Path 13" class="cls-15" d="M80.89,505.81a3.69,3.69,0,0,1-2-4.44,1.86,1.86,0,0,0,.08-.41h0a1.84,1.84,0,0,0-3.31-1.22h0a1.58,1.58,0,0,0-.2.36,3.68,3.68,0,0,1-4.44,2,1.86,1.86,0,0,0-.41-.08h0a1.84,1.84,0,0,0-1.22,3.31h0a2.12,2.12,0,0,0,.36.21,3.68,3.68,0,0,1,2,4.44,1.77,1.77,0,0,0-.08.4h0A1.84,1.84,0,0,0,75,511.66h0a1.9,1.9,0,0,0,.2-.37,3.67,3.67,0,0,1,4.44-2,1.86,1.86,0,0,0,.41.08h0a1.84,1.84,0,0,0,1.22-3.31h0A1.78,1.78,0,0,0,80.89,505.81Z"/><path id="Path_14" data-name="Path 14" class="cls-15" d="M25.89,174.81a3.68,3.68,0,0,1-2-4.44A1.86,1.86,0,0,0,24,170h0a1.84,1.84,0,0,0-3.31-1.22h0a1.58,1.58,0,0,0-.2.36A3.68,3.68,0,0,1,16,171.15a1.86,1.86,0,0,0-.41-.08h0a1.84,1.84,0,0,0-1.22,3.31h0a2.12,2.12,0,0,0,.36.21A3.68,3.68,0,0,1,16.8,179a1.77,1.77,0,0,0-.08.4h0A1.84,1.84,0,0,0,20,180.66h0a1.9,1.9,0,0,0,.2-.37,3.67,3.67,0,0,1,4.44-2,1.86,1.86,0,0,0,.41.08h0a1.84,1.84,0,0,0,1.22-3.31h0A1.55,1.55,0,0,0,25.89,174.81Z"/><path id="Path_15" data-name="Path 15" class="cls-15" d="M632.89,6.81a3.68,3.68,0,0,1-2-4.44A1.86,1.86,0,0,0,631,2h0A1.84,1.84,0,0,0,627.66.74h0a1.58,1.58,0,0,0-.2.36,3.68,3.68,0,0,1-4.44,2,1.86,1.86,0,0,0-.41-.08h0a1.84,1.84,0,0,0-1.27,3.41h0a2.12,2.12,0,0,0,.36.21,3.68,3.68,0,0,1,2,4.44,1.77,1.77,0,0,0-.08.4h0A1.84,1.84,0,0,0,627,12.66h0a1.9,1.9,0,0,0,.2-.37,3.67,3.67,0,0,1,4.44-2,1.86,1.86,0,0,0,.41.08h0a1.84,1.84,0,0,0,1.22-3.31h0a1.39,1.39,0,0,0-.38-.25Z"/><g id="Group_6" data-name="Group 6" class="cls-9"><rect id="Rectangle_2" data-name="Rectangle 2" class="cls-8" x="110" y="257.85" width="3" height="17"/><rect id="Rectangle_3" data-name="Rectangle 3" class="cls-8" x="103" y="264.85" width="17" height="3"/></g><g id="Group_7" data-name="Group 7" class="cls-9"><rect id="Rectangle_4" data-name="Rectangle 4" class="cls-8" x="830" y="177.85" width="3" height="17"/><rect id="Rectangle_5" data-name="Rectangle 5" class="cls-8" x="823" y="184.85" width="17" height="3"/></g><g id="Group_8" data-name="Group 8" class="cls-9"><rect id="Rectangle_6" data-name="Rectangle 6" class="cls-8" x="730" y="456.85" width="3" height="17"/><rect id="Rectangle_7" data-name="Rectangle 7" class="cls-8" x="723" y="463.85" width="17" height="3"/></g><circle id="Ellipse_11" data-name="Ellipse 11" class="cls-15" cx="723" cy="81.85" r="6"/><circle id="Ellipse_12" data-name="Ellipse 12" class="cls-15" cx="6" cy="12.85" r="6"/><circle id="Ellipse_13" data-name="Ellipse 13" class="cls-15" cx="186" cy="357.85" r="6"/><ellipse id="Ellipse_14" data-name="Ellipse 14" class="cls-14" cx="234" cy="154.43" rx="34" ry="7"/><ellipse id="Ellipse_15" data-name="Ellipse 15" class="cls-14" cx="234" cy="207.43" rx="34" ry="7"/><ellipse id="Ellipse_16" data-name="Ellipse 16" class="cls-14" cx="621" cy="154.43" rx="34" ry="7"/><ellipse id="Ellipse_17" data-name="Ellipse 17" class="cls-14" cx="621" cy="207.43" rx="34" ry="7"/><ellipse id="Ellipse_18" data-name="Ellipse 18" class="cls-14" cx="432" cy="124.43" rx="34" ry="7"/><ellipse id="Ellipse_19" data-name="Ellipse 19" class="cls-14" cx="457" cy="51.43" rx="34" ry="7"/><ellipse id="Ellipse_20" data-name="Ellipse 20" class="cls-14" cx="392" cy="81.43" rx="34" ry="7"/><ellipse id="Ellipse_21" data-name="Ellipse 21" class="cls-14" cx="517" cy="94.43" rx="34" ry="7"/><ellipse id="Ellipse_22" data-name="Ellipse 22" class="cls-14" cx="432" cy="228.43" rx="34" ry="7"/><rect class="cls-8" x="310.67" y="429.76" width="228.39" height="228.39" rx="21.04" transform="translate(-219.06 295.44) rotate(-30.9)"/><text class="cls-16" transform="translate(465.41 588.13) rotate(-30.9)">W</text><rect class="cls-17" x="293.9" y="476.58" width="190.08" height="15.54" transform="translate(-193.55 268.53) rotate(-30.9)"/><rect class="cls-18" x="309.39" y="502.46" width="190.08" height="15.54" transform="translate(-204.64 280.16) rotate(-30.9)"/><rect class="cls-19" x="324.88" y="528.33" width="190.08" height="15.54" transform="translate(-215.73 291.78) rotate(-30.9)"/><rect class="cls-20" x="347.11" y="578.61" width="95.04" height="15.54" transform="translate(-245.14 285.94) rotate(-30.9)"/><rect class="cls-21" x="362.6" y="604.49" width="95.04" height="15.54" transform="translate(-256.23 297.57) rotate(-30.9)"/></g></g></svg>