<svg xmlns="http://www.w3.org/2000/svg" xmlns:xlink="http://www.w3.org/1999/xlink" width="32" height="32" viewBox="0 0 32 32"><defs><linearGradient id="a"><stop offset="0" stop-color="#24f7bc"/><stop offset="1" stop-color="#24c4fc"/></linearGradient><linearGradient id="b" x1="949.87" x2="974.39" y1="518.014" y2="544.657" gradientTransform="matrix(1.02524 0 0 1.02524 -969.568 491.682)" gradientUnits="userSpaceOnUse" xlink:href="#a"/></defs><g transform="translate(0 -1020.362)"><rect width="32" height="32" y="1020.362" fill="url(#b)" rx="6.763" ry="6.763"/><path fill="#fff" style="text-indent:0;text-align:start;line-height:normal;text-transform:none;block-progression:tb" d="M 8.40625 8 A 0.50004998 0.50004998 0 0 0 8 8.5 L 8 14.5 A 0.50004998 0.50004998 0 0 0 8.5 15 L 14.5 15 A 0.50004998 0.50004998 0 0 0 15 14.5 L 15 8.5 A 0.50004998 0.50004998 0 0 0 14.5 8 L 8.5 8 A 0.50004998 0.50004998 0 0 0 8.40625 8 z M 17.40625 8 A 0.50004998 0.50004998 0 0 0 17 8.5 L 17 14.5 A 0.50004998 0.50004998 0 0 0 17.5 15 L 23.5 15 A 0.50004998 0.50004998 0 0 0 24 14.5 L 24 8.5 A 0.50004998 0.50004998 0 0 0 23.5 8 L 17.5 8 A 0.50004998 0.50004998 0 0 0 17.40625 8 z M 9 9 L 14 9 L 14 14 L 9 14 L 9 9 z M 18 9 L 23 9 L 23 14 L 18 14 L 18 9 z M 8.40625 17 A 0.50004998 0.50004998 0 0 0 8 17.5 L 8 23.5 A 0.50004998 0.50004998 0 0 0 8.5 24 L 14.5 24 A 0.50004998 0.50004998 0 0 0 15 23.5 L 15 17.5 A 0.50004998 0.50004998 0 0 0 14.5 17 L 8.5 17 A 0.50004998 0.50004998 0 0 0 8.40625 17 z M 17.40625 17 A 0.50004998 0.50004998 0 0 0 17 17.5 L 17 23.5 A 0.50004998 0.50004998 0 0 0 17.5 24 L 23.5 24 A 0.50004998 0.50004998 0 0 0 24 23.5 L 24 17.5 A 0.50004998 0.50004998 0 0 0 23.5 17 L 17.5 17 A 0.50004998 0.50004998 0 0 0 17.40625 17 z M 9 18 L 14 18 L 14 23 L 9 23 L 9 18 z M 18 18 L 23 18 L 23 23 L 18 23 L 18 18 z " color="#000" font-family="sans-serif" font-weight="400" overflow="visible" transform="translate(0 1020.362)"/></g></svg>